<svg xmlns="http://www.w3.org/2000/svg" width="39.214" height="30.063" viewBox="0 0 39.214 30.063">
  <g id="cloud-data-ops_wht" data-name="cloud-data-ops wht" transform="translate(0.002 -5.625)">
    <path id="Path_1670" data-name="Path 1670" d="M31.5,20.25h2.614V33.321H31.5Z" transform="translate(5.098 2.367)" fill="#fff"/>
    <path id="Path_1671" data-name="Path 1671" d="M27,15.75h2.614v18.3H27Z" transform="translate(4.37 1.639)" fill="#fff"/>
    <path id="Path_1672" data-name="Path 1672" d="M22.5,24.75h2.614v7.842H22.5Z" transform="translate(3.642 3.095)" fill="#fff"/>
    <path id="Path_1673" data-name="Path 1673" d="M28.985,12.16l2.072-1.654A13.053,13.053,0,0,0,8.065,16.233,9.809,9.809,0,0,0,.071,27.074a10.044,10.044,0,0,0,10.085,8.614H20.913V33.073H10.057A7.361,7.361,0,0,1,2.735,27.21a7.2,7.2,0,0,1,5.8-8.4l1.764-.321.28-1.451a10.726,10.726,0,0,1,8.813-8.681,10.414,10.414,0,0,1,3.94.17,10.2,10.2,0,0,1,5.658,3.639Z" transform="translate(0)" fill="#fff"/>
  </g>
</svg>
