<svg xmlns="http://www.w3.org/2000/svg" width="38.781" height="36.419" viewBox="0 0 38.781 36.419">
  <path id="Platform_blu" data-name="Platform blu" d="M2.214,35.42A2.216,2.216,0,0,1,0,33.206V2.214A2.216,2.216,0,0,1,2.214,0H35.567a2.216,2.216,0,0,1,2.214,2.214V33.206a2.216,2.216,0,0,1-2.214,2.213Zm-.738-2.213a.738.738,0,0,0,.738.737H35.567a.738.738,0,0,0,.738-.737V7.379H1.476Zm0-30.992V5.9h34.83V2.214a.739.739,0,0,0-.738-.738H2.214A.739.739,0,0,0,1.476,2.214ZM16.688,30.134l2.951-17.71a.738.738,0,1,1,1.455.243l-2.951,17.71a.738.738,0,1,1-1.455-.243Zm7.584-2.309a.739.739,0,0,1,0-1.043L29.654,21.4l-5.382-5.381a.738.738,0,0,1,1.044-1.044l5.9,5.9a.737.737,0,0,1,0,1.043l-5.9,5.9a.738.738,0,0,1-1.044,0Zm-11.806,0-5.9-5.9a.739.739,0,0,1,0-1.043l5.9-5.9a.738.738,0,0,1,1.043,1.044L8.128,21.4l5.381,5.381a.738.738,0,1,1-1.043,1.043Zm13.8-23.4a.738.738,0,1,1,0-1.476h6.346a.738.738,0,0,1,0,1.476ZM22.58,3.69a.738.738,0,1,1,.738.737A.738.738,0,0,1,22.58,3.69Zm-11.807,0a.738.738,0,1,1,.738.737A.738.738,0,0,1,10.773,3.69Zm-2.951,0a.738.738,0,1,1,.738.737A.738.738,0,0,1,7.822,3.69Zm-2.951,0a.738.738,0,1,1,.738.737A.738.738,0,0,1,4.87,3.69Z" transform="translate(0.5 0.5)" fill="#0b5d6e" stroke="#0b5d6e" stroke-width="1"/>
</svg>
