<svg xmlns="http://www.w3.org/2000/svg" xmlns:xlink="http://www.w3.org/1999/xlink" version="1.1" width="1000" height="1000" viewBox="0 0 1000 1000" xml:space="preserve">
<desc>Created with Fabric.js 3.5.0</desc>
<defs>
</defs>
<rect x="0" y="0" width="100%" height="100%" fill="#ffffff"/>
<g transform="matrix(1 0 0 1 439.9047 465.2787)" id="645621">
<path style="stroke: none; stroke-width: 1; stroke-dasharray: none; stroke-linecap: butt; stroke-dashoffset: 0; stroke-linejoin: miter; stroke-miterlimit: 4; is-custom-font: none; font-file-url: none; fill: rgb(225,225,225); fill-rule: nonzero; opacity: 1;" vector-effect="non-scaling-stroke" transform=" translate(-19.5477, -58.809)" d="M 48.427 57.195 l -14.61 -14.61 a 2.283 2.283 0 0 0 -3.228 3.228 L 41.3 56.526 H -7.717 A 2.283 2.283 0 0 0 -10 58.809 a 2.283 2.283 0 0 0 2.283 2.283 H 41.3 L 30.589 71.805 a 2.283 2.283 0 0 0 3.228 3.228 l 14.61 -14.61 A 2.283 2.283 0 0 0 48.427 57.195 Z" stroke-linecap="round"/>
</g>
</svg>